<svg width="19.105" height="3.76" viewBox="0 0 19.105 3.76" xmlns="http://www.w3.org/2000/svg"><g id="svgGroup" stroke-linecap="round" fill-rule="evenodd" font-size="9pt" stroke="#ffffff" stroke-width="0" fill="#ffffff" style="stroke:#ffffff;stroke-width:0;fill:#ffffff"><path d="M 0.475 3.7 L 0 3.7 L 0 0.2 L 2.075 0.2 L 2.075 0.61 L 0.475 0.61 L 0.475 1.68 L 1.81 1.68 L 1.81 2.07 L 0.475 2.07 L 0.475 3.7 Z M 14.42 3.49 L 14.61 3.115 A 0.928 0.928 0 0 0 14.767 3.221 Q 14.844 3.263 14.936 3.297 A 1.821 1.821 0 0 0 14.937 3.297 A 1.204 1.204 0 0 0 15.318 3.369 A 1.373 1.373 0 0 0 15.36 3.37 A 1.356 1.356 0 0 0 15.514 3.362 Q 15.673 3.344 15.772 3.284 A 0.387 0.387 0 0 0 15.783 3.278 A 0.372 0.372 0 0 0 15.859 3.213 A 0.253 0.253 0 0 0 15.925 3.04 A 0.356 0.356 0 0 0 15.909 2.933 A 0.311 0.311 0 0 0 15.873 2.855 A 0.319 0.319 0 0 0 15.826 2.8 Q 15.775 2.752 15.692 2.704 A 1.117 1.117 0 0 0 15.68 2.697 Q 15.554 2.627 15.325 2.547 A 5.179 5.179 0 0 0 15.275 2.53 Q 15.029 2.446 14.866 2.34 A 0.967 0.967 0 0 1 14.728 2.232 A 0.566 0.566 0 0 1 14.563 1.933 A 0.84 0.84 0 0 1 14.545 1.755 A 0.606 0.606 0 0 1 14.742 1.304 A 0.873 0.873 0 0 1 14.808 1.248 A 0.888 0.888 0 0 1 15.109 1.095 Q 15.237 1.057 15.39 1.045 A 1.876 1.876 0 0 1 15.535 1.04 A 2.04 2.04 0 0 1 15.757 1.052 Q 15.873 1.064 15.974 1.091 A 1.265 1.265 0 0 1 15.98 1.093 A 1.938 1.938 0 0 1 16.187 1.16 A 1.556 1.556 0 0 1 16.33 1.225 L 16.205 1.595 A 1.226 1.226 0 0 0 16.022 1.507 A 1.51 1.51 0 0 0 15.897 1.465 Q 15.725 1.415 15.515 1.415 A 1.032 1.032 0 0 0 15.368 1.425 Q 15.293 1.436 15.233 1.458 A 0.425 0.425 0 0 0 15.12 1.52 A 0.466 0.466 0 0 0 15.052 1.584 Q 15.017 1.625 15 1.668 A 0.226 0.226 0 0 0 14.985 1.75 Q 14.985 1.87 15.09 1.955 A 0.494 0.494 0 0 0 15.155 1.998 Q 15.269 2.064 15.49 2.137 A 4.183 4.183 0 0 0 15.5 2.14 Q 15.928 2.283 16.132 2.451 A 0.747 0.747 0 0 1 16.19 2.505 A 0.68 0.68 0 0 1 16.384 2.967 A 0.895 0.895 0 0 1 16.385 3.005 A 0.694 0.694 0 0 1 16.332 3.281 Q 16.263 3.443 16.103 3.558 A 1.003 1.003 0 0 1 15.784 3.706 Q 15.59 3.76 15.345 3.76 Q 15.05 3.76 14.813 3.685 A 1.544 1.544 0 0 1 14.62 3.611 Q 14.521 3.564 14.442 3.507 A 0.912 0.912 0 0 1 14.42 3.49 Z M 9.01 3.485 L 9.01 3.7 L 8.59 3.7 L 8.59 0 L 9.04 0 L 9.04 1.37 A 0.776 0.776 0 0 1 9.134 1.28 Q 9.217 1.212 9.333 1.148 A 0.829 0.829 0 0 1 9.594 1.056 A 1.121 1.121 0 0 1 9.79 1.04 Q 10.09 1.04 10.353 1.198 A 1.116 1.116 0 0 1 10.711 1.546 A 1.373 1.373 0 0 1 10.775 1.653 A 1.284 1.284 0 0 1 10.9 2.005 Q 10.935 2.176 10.935 2.375 A 1.666 1.666 0 0 1 10.901 2.719 A 1.387 1.387 0 0 1 10.835 2.94 Q 10.735 3.195 10.568 3.378 A 1.245 1.245 0 0 1 10.261 3.623 A 1.165 1.165 0 0 1 10.19 3.66 A 1 1 0 0 1 9.822 3.758 A 0.96 0.96 0 0 1 9.76 3.76 Q 9.535 3.76 9.338 3.678 Q 9.15 3.599 9.024 3.496 A 0.911 0.911 0 0 1 9.01 3.485 Z M 7.975 2.585 L 6.155 2.585 A 1.204 1.204 0 0 0 6.212 2.836 Q 6.271 3.006 6.382 3.126 A 0.749 0.749 0 0 0 6.41 3.155 A 0.707 0.707 0 0 0 6.791 3.346 A 1.001 1.001 0 0 0 6.965 3.36 Q 7.19 3.36 7.37 3.313 Q 7.55 3.265 7.715 3.19 L 7.82 3.575 A 2.038 2.038 0 0 1 7.603 3.656 A 2.593 2.593 0 0 1 7.415 3.707 A 1.946 1.946 0 0 1 7.16 3.748 A 2.601 2.601 0 0 1 6.91 3.76 A 1.416 1.416 0 0 1 6.523 3.71 A 1.055 1.055 0 0 1 6.022 3.403 A 1.176 1.176 0 0 1 5.762 2.926 Q 5.712 2.751 5.699 2.542 A 2.356 2.356 0 0 1 5.695 2.4 A 1.768 1.768 0 0 1 5.737 2.009 A 1.442 1.442 0 0 1 5.843 1.702 A 1.232 1.232 0 0 1 6.093 1.348 A 1.144 1.144 0 0 1 6.255 1.217 A 1.052 1.052 0 0 1 6.768 1.044 A 1.31 1.31 0 0 1 6.87 1.04 A 1.428 1.428 0 0 1 7.144 1.065 Q 7.311 1.097 7.444 1.173 A 0.861 0.861 0 0 1 7.492 1.203 Q 7.74 1.365 7.865 1.64 A 1.409 1.409 0 0 1 7.986 2.133 A 1.672 1.672 0 0 1 7.99 2.245 A 3.76 3.76 0 0 1 7.975 2.58 A 3.529 3.529 0 0 1 7.975 2.585 Z M 19.09 2.585 L 17.27 2.585 A 1.204 1.204 0 0 0 17.327 2.836 Q 17.386 3.006 17.497 3.126 A 0.749 0.749 0 0 0 17.525 3.155 A 0.707 0.707 0 0 0 17.906 3.346 A 1.001 1.001 0 0 0 18.08 3.36 Q 18.305 3.36 18.485 3.313 Q 18.665 3.265 18.83 3.19 L 18.935 3.575 A 2.038 2.038 0 0 1 18.718 3.656 A 2.593 2.593 0 0 1 18.53 3.707 A 1.946 1.946 0 0 1 18.275 3.748 A 2.601 2.601 0 0 1 18.025 3.76 A 1.416 1.416 0 0 1 17.638 3.71 A 1.055 1.055 0 0 1 17.137 3.403 A 1.176 1.176 0 0 1 16.877 2.926 Q 16.827 2.751 16.814 2.542 A 2.356 2.356 0 0 1 16.81 2.4 A 1.768 1.768 0 0 1 16.852 2.009 A 1.442 1.442 0 0 1 16.958 1.702 A 1.232 1.232 0 0 1 17.208 1.348 A 1.144 1.144 0 0 1 17.37 1.217 A 1.052 1.052 0 0 1 17.883 1.044 A 1.31 1.31 0 0 1 17.985 1.04 A 1.428 1.428 0 0 1 18.259 1.065 Q 18.426 1.097 18.559 1.173 A 0.861 0.861 0 0 1 18.607 1.203 Q 18.855 1.365 18.98 1.64 A 1.409 1.409 0 0 1 19.101 2.133 A 1.672 1.672 0 0 1 19.105 2.245 A 3.76 3.76 0 0 1 19.09 2.58 A 3.529 3.529 0 0 1 19.09 2.585 Z M 13.34 1.31 L 13.34 1.1 L 13.75 1.1 L 13.75 3.07 A 0.607 0.607 0 0 0 13.755 3.152 Q 13.772 3.273 13.843 3.318 Q 13.935 3.375 14.045 3.375 L 13.95 3.725 Q 13.482 3.725 13.375 3.354 A 0.679 0.679 0 0 1 13.37 3.335 A 1.065 1.065 0 0 1 13.215 3.506 A 1.425 1.425 0 0 1 13.058 3.628 Q 12.872 3.752 12.591 3.76 A 1.36 1.36 0 0 1 12.555 3.76 Q 12.23 3.76 11.965 3.595 A 1.147 1.147 0 0 1 11.594 3.219 A 1.396 1.396 0 0 1 11.542 3.128 Q 11.385 2.825 11.385 2.415 A 1.657 1.657 0 0 1 11.435 2.002 A 1.398 1.398 0 0 1 11.542 1.715 Q 11.7 1.405 11.978 1.223 A 1.115 1.115 0 0 1 12.537 1.042 A 1.369 1.369 0 0 1 12.615 1.04 A 1.129 1.129 0 0 1 12.855 1.065 A 0.935 0.935 0 0 1 13.022 1.118 A 1.3 1.3 0 0 1 13.237 1.232 A 1.105 1.105 0 0 1 13.34 1.31 Z M 4.325 3.7 L 3.875 3.7 L 3.875 1.1 L 4.31 1.1 L 4.31 1.665 Q 4.375 1.5 4.485 1.358 Q 4.595 1.215 4.76 1.128 A 0.741 0.741 0 0 1 4.994 1.051 A 0.973 0.973 0 0 1 5.145 1.04 Q 5.22 1.04 5.295 1.048 A 0.949 0.949 0 0 1 5.348 1.054 Q 5.389 1.061 5.42 1.07 L 5.285 1.535 A 0.488 0.488 0 0 0 5.178 1.504 Q 5.128 1.496 5.072 1.495 A 0.831 0.831 0 0 0 5.06 1.495 A 0.648 0.648 0 0 0 4.729 1.587 A 0.78 0.78 0 0 0 4.708 1.6 A 0.67 0.67 0 0 0 4.534 1.76 Q 4.479 1.831 4.434 1.922 A 1.082 1.082 0 0 0 4.433 1.925 A 0.966 0.966 0 0 0 4.359 2.14 Q 4.325 2.294 4.325 2.485 L 4.325 3.7 Z M 3.075 3.7 L 2.625 3.7 L 2.625 1.1 L 3.075 1.1 L 3.075 3.7 Z M 13.3 3.035 L 13.3 1.64 Q 13.165 1.545 13.003 1.488 Q 12.84 1.43 12.66 1.43 A 0.796 0.796 0 0 0 12.411 1.468 A 0.701 0.701 0 0 0 12.238 1.552 A 0.815 0.815 0 0 0 11.987 1.824 A 0.998 0.998 0 0 0 11.95 1.893 A 1.033 1.033 0 0 0 11.862 2.176 A 1.384 1.384 0 0 0 11.845 2.4 Q 11.845 2.68 11.95 2.898 A 0.88 0.88 0 0 0 12.105 3.125 A 0.785 0.785 0 0 0 12.24 3.238 Q 12.425 3.36 12.655 3.36 Q 12.845 3.36 13.015 3.268 A 0.973 0.973 0 0 0 13.251 3.09 A 0.903 0.903 0 0 0 13.3 3.035 Z M 9.04 1.77 L 9.04 3.16 A 0.9 0.9 0 0 0 9.221 3.269 A 1.09 1.09 0 0 0 9.31 3.305 A 0.973 0.973 0 0 0 9.618 3.36 A 1.102 1.102 0 0 0 9.64 3.36 A 0.85 0.85 0 0 0 9.891 3.324 A 0.737 0.737 0 0 0 10.072 3.24 A 0.798 0.798 0 0 0 10.33 2.969 A 0.982 0.982 0 0 0 10.368 2.9 A 1.043 1.043 0 0 0 10.46 2.598 A 1.374 1.374 0 0 0 10.475 2.39 A 1.402 1.402 0 0 0 10.455 2.148 Q 10.43 2.007 10.375 1.89 A 0.868 0.868 0 0 0 10.368 1.875 Q 10.26 1.66 10.083 1.545 Q 9.905 1.43 9.69 1.43 A 0.737 0.737 0 0 0 9.409 1.483 A 0.703 0.703 0 0 0 9.302 1.537 Q 9.156 1.629 9.069 1.733 A 0.647 0.647 0 0 0 9.04 1.77 Z M 6.15 2.22 L 7.575 2.22 A 1.218 1.218 0 0 0 7.555 1.991 Q 7.513 1.773 7.385 1.635 A 0.624 0.624 0 0 0 7.037 1.446 A 0.92 0.92 0 0 0 6.86 1.43 A 0.679 0.679 0 0 0 6.604 1.477 A 0.626 0.626 0 0 0 6.38 1.632 A 0.758 0.758 0 0 0 6.233 1.867 Q 6.171 2.018 6.15 2.22 Z M 17.265 2.22 L 18.69 2.22 A 1.218 1.218 0 0 0 18.67 1.991 Q 18.628 1.773 18.5 1.635 A 0.624 0.624 0 0 0 18.152 1.446 A 0.92 0.92 0 0 0 17.975 1.43 A 0.679 0.679 0 0 0 17.719 1.477 A 0.626 0.626 0 0 0 17.495 1.632 A 0.758 0.758 0 0 0 17.348 1.867 Q 17.286 2.018 17.265 2.22 Z M 2.85 0.655 Q 2.72 0.655 2.628 0.56 A 0.332 0.332 0 0 1 2.56 0.461 A 0.3 0.3 0 0 1 2.535 0.34 Q 2.535 0.195 2.62 0.11 A 0.283 0.283 0 0 1 2.767 0.033 A 0.413 0.413 0 0 1 2.85 0.025 A 0.303 0.303 0 0 1 3.07 0.115 A 0.371 0.371 0 0 1 3.072 0.117 Q 3.165 0.21 3.165 0.34 A 0.376 0.376 0 0 1 3.151 0.444 A 0.289 0.289 0 0 1 3.08 0.567 Q 2.995 0.655 2.85 0.655 Z" vector-effect="non-scaling-stroke"/></g></svg>