<svg width="25.345" height="3.76" viewBox="0 0 25.345 3.76" xmlns="http://www.w3.org/2000/svg"><g id="svgGroup" stroke-linecap="round" fill-rule="evenodd" font-size="9pt" stroke="#ffffff" stroke-width="0" fill="#ffffff" style="stroke:#ffffff;stroke-width:0;fill:#ffffff"><path d="M 0.45 3.7 L 0 3.7 L 0 0.2 L 0.665 0.2 L 1.635 2.415 L 2.59 0.2 L 3.27 0.2 L 3.27 3.7 L 2.795 3.7 L 2.795 0.805 L 1.86 2.91 L 1.39 2.91 L 0.45 0.805 L 0.45 3.7 Z M 21.445 2.37 L 21.445 0.2 L 21.92 0.2 L 21.92 2.295 A 1.974 1.974 0 0 0 21.94 2.586 Q 21.963 2.74 22.013 2.866 A 0.883 0.883 0 0 0 22.125 3.07 A 0.662 0.662 0 0 0 22.548 3.328 A 1.021 1.021 0 0 0 22.74 3.345 A 1.069 1.069 0 0 0 22.99 3.318 A 0.673 0.673 0 0 0 23.375 3.078 Q 23.585 2.81 23.585 2.295 L 23.585 0.2 L 24.045 0.2 L 24.045 2.35 A 1.998 1.998 0 0 1 24.014 2.712 A 1.433 1.433 0 0 1 23.883 3.108 A 1.18 1.18 0 0 1 23.602 3.47 A 1.121 1.121 0 0 1 23.427 3.592 A 1.251 1.251 0 0 1 22.999 3.74 A 1.641 1.641 0 0 1 22.74 3.76 Q 22.135 3.76 21.79 3.4 A 1.166 1.166 0 0 1 21.517 2.918 Q 21.463 2.737 21.45 2.519 A 2.405 2.405 0 0 1 21.445 2.37 Z M 11.295 2.585 L 9.475 2.585 A 1.204 1.204 0 0 0 9.532 2.836 Q 9.591 3.006 9.702 3.126 A 0.749 0.749 0 0 0 9.73 3.155 A 0.707 0.707 0 0 0 10.111 3.346 A 1.001 1.001 0 0 0 10.285 3.36 Q 10.51 3.36 10.69 3.313 Q 10.87 3.265 11.035 3.19 L 11.14 3.575 A 2.038 2.038 0 0 1 10.923 3.656 A 2.593 2.593 0 0 1 10.735 3.707 A 1.946 1.946 0 0 1 10.48 3.748 A 2.601 2.601 0 0 1 10.23 3.76 A 1.416 1.416 0 0 1 9.843 3.71 A 1.055 1.055 0 0 1 9.342 3.403 A 1.176 1.176 0 0 1 9.082 2.926 Q 9.032 2.751 9.019 2.542 A 2.356 2.356 0 0 1 9.015 2.4 A 1.768 1.768 0 0 1 9.057 2.009 A 1.442 1.442 0 0 1 9.163 1.702 A 1.232 1.232 0 0 1 9.413 1.348 A 1.144 1.144 0 0 1 9.575 1.217 A 1.052 1.052 0 0 1 10.088 1.044 A 1.31 1.31 0 0 1 10.19 1.04 A 1.428 1.428 0 0 1 10.464 1.065 Q 10.631 1.097 10.764 1.173 A 0.861 0.861 0 0 1 10.812 1.203 Q 11.06 1.365 11.185 1.64 A 1.409 1.409 0 0 1 11.306 2.133 A 1.672 1.672 0 0 1 11.31 2.245 A 3.76 3.76 0 0 1 11.295 2.58 A 3.529 3.529 0 0 1 11.295 2.585 Z M 7.305 2.805 L 7.305 1.585 L 6.855 1.585 L 6.855 1.195 L 7.315 1.195 L 7.41 0.375 L 7.755 0.375 L 7.755 1.195 L 8.475 1.195 L 8.475 1.585 L 7.755 1.585 L 7.755 2.84 A 1.078 1.078 0 0 0 7.763 2.98 Q 7.783 3.132 7.851 3.217 A 0.278 0.278 0 0 0 7.878 3.245 Q 8 3.36 8.17 3.36 Q 8.295 3.36 8.408 3.32 A 1.287 1.287 0 0 0 8.566 3.252 A 1.138 1.138 0 0 0 8.615 3.225 L 8.74 3.585 A 0.927 0.927 0 0 1 8.659 3.628 Q 8.579 3.666 8.47 3.703 Q 8.3 3.76 8.115 3.76 A 0.916 0.916 0 0 1 7.856 3.725 A 0.697 0.697 0 0 1 7.523 3.512 A 0.806 0.806 0 0 1 7.361 3.217 Q 7.305 3.039 7.305 2.805 Z M 5.9 1.31 L 5.9 1.1 L 6.31 1.1 L 6.31 3.07 A 0.607 0.607 0 0 0 6.315 3.152 Q 6.332 3.273 6.403 3.318 Q 6.495 3.375 6.605 3.375 L 6.51 3.725 Q 6.042 3.725 5.935 3.354 A 0.679 0.679 0 0 1 5.93 3.335 A 1.065 1.065 0 0 1 5.775 3.506 A 1.425 1.425 0 0 1 5.618 3.628 Q 5.432 3.752 5.151 3.76 A 1.36 1.36 0 0 1 5.115 3.76 Q 4.79 3.76 4.525 3.595 A 1.147 1.147 0 0 1 4.154 3.219 A 1.396 1.396 0 0 1 4.102 3.128 Q 3.945 2.825 3.945 2.415 A 1.657 1.657 0 0 1 3.995 2.002 A 1.398 1.398 0 0 1 4.102 1.715 Q 4.26 1.405 4.538 1.223 A 1.115 1.115 0 0 1 5.097 1.042 A 1.369 1.369 0 0 1 5.175 1.04 A 1.129 1.129 0 0 1 5.415 1.065 A 0.935 0.935 0 0 1 5.582 1.118 A 1.3 1.3 0 0 1 5.797 1.232 A 1.105 1.105 0 0 1 5.9 1.31 Z M 16.935 1.31 L 16.935 1.1 L 17.345 1.1 L 17.345 3.07 A 0.607 0.607 0 0 0 17.35 3.152 Q 17.367 3.273 17.438 3.318 Q 17.53 3.375 17.64 3.375 L 17.545 3.725 Q 17.077 3.725 16.97 3.354 A 0.679 0.679 0 0 1 16.965 3.335 A 1.065 1.065 0 0 1 16.81 3.506 A 1.425 1.425 0 0 1 16.653 3.628 Q 16.467 3.752 16.186 3.76 A 1.36 1.36 0 0 1 16.15 3.76 Q 15.825 3.76 15.56 3.595 A 1.147 1.147 0 0 1 15.189 3.219 A 1.396 1.396 0 0 1 15.137 3.128 Q 14.98 2.825 14.98 2.415 A 1.657 1.657 0 0 1 15.03 2.002 A 1.398 1.398 0 0 1 15.137 1.715 Q 15.295 1.405 15.573 1.223 A 1.115 1.115 0 0 1 16.132 1.042 A 1.369 1.369 0 0 1 16.21 1.04 A 1.129 1.129 0 0 1 16.45 1.065 A 0.935 0.935 0 0 1 16.617 1.118 A 1.3 1.3 0 0 1 16.832 1.232 A 1.105 1.105 0 0 1 16.935 1.31 Z M 18.215 2.885 L 18.215 0 L 18.665 0 L 18.665 2.84 A 1.032 1.032 0 0 0 18.674 2.984 Q 18.685 3.056 18.706 3.114 A 0.399 0.399 0 0 0 18.777 3.24 A 0.368 0.368 0 0 0 19.007 3.364 A 0.536 0.536 0 0 0 19.09 3.37 Q 19.185 3.37 19.278 3.348 A 1.109 1.109 0 0 0 19.351 3.327 Q 19.386 3.316 19.416 3.304 A 0.597 0.597 0 0 0 19.435 3.295 L 19.545 3.66 Q 19.455 3.7 19.323 3.73 Q 19.19 3.76 19.03 3.76 A 1.043 1.043 0 0 1 18.785 3.732 A 0.877 0.877 0 0 1 18.615 3.673 Q 18.43 3.585 18.323 3.39 A 0.788 0.788 0 0 1 18.249 3.197 Q 18.215 3.059 18.215 2.885 Z M 12.36 3.7 L 11.91 3.7 L 11.91 1.1 L 12.345 1.1 L 12.345 1.665 Q 12.41 1.5 12.52 1.358 Q 12.63 1.215 12.795 1.128 A 0.741 0.741 0 0 1 13.029 1.051 A 0.973 0.973 0 0 1 13.18 1.04 Q 13.255 1.04 13.33 1.048 A 0.949 0.949 0 0 1 13.383 1.054 Q 13.424 1.061 13.455 1.07 L 13.32 1.535 A 0.488 0.488 0 0 0 13.213 1.504 Q 13.163 1.496 13.107 1.495 A 0.831 0.831 0 0 0 13.095 1.495 A 0.648 0.648 0 0 0 12.764 1.587 A 0.78 0.78 0 0 0 12.743 1.6 A 0.67 0.67 0 0 0 12.569 1.76 Q 12.514 1.831 12.469 1.922 A 1.082 1.082 0 0 0 12.468 1.925 A 0.966 0.966 0 0 0 12.394 2.14 Q 12.36 2.294 12.36 2.485 L 12.36 3.7 Z M 25.345 3.7 L 24.87 3.7 L 24.87 0.2 L 25.345 0.2 L 25.345 3.7 Z M 14.355 3.7 L 13.905 3.7 L 13.905 1.1 L 14.355 1.1 L 14.355 3.7 Z M 5.86 3.035 L 5.86 1.64 Q 5.725 1.545 5.563 1.488 Q 5.4 1.43 5.22 1.43 A 0.796 0.796 0 0 0 4.971 1.468 A 0.701 0.701 0 0 0 4.798 1.552 A 0.815 0.815 0 0 0 4.547 1.824 A 0.998 0.998 0 0 0 4.51 1.893 A 1.033 1.033 0 0 0 4.422 2.176 A 1.384 1.384 0 0 0 4.405 2.4 Q 4.405 2.68 4.51 2.898 A 0.88 0.88 0 0 0 4.665 3.125 A 0.785 0.785 0 0 0 4.8 3.238 Q 4.985 3.36 5.215 3.36 Q 5.405 3.36 5.575 3.268 A 0.973 0.973 0 0 0 5.811 3.09 A 0.903 0.903 0 0 0 5.86 3.035 Z M 16.895 3.035 L 16.895 1.64 Q 16.76 1.545 16.598 1.488 Q 16.435 1.43 16.255 1.43 A 0.796 0.796 0 0 0 16.006 1.468 A 0.701 0.701 0 0 0 15.833 1.552 A 0.815 0.815 0 0 0 15.582 1.824 A 0.998 0.998 0 0 0 15.545 1.893 A 1.033 1.033 0 0 0 15.457 2.176 A 1.384 1.384 0 0 0 15.44 2.4 Q 15.44 2.68 15.545 2.898 A 0.88 0.88 0 0 0 15.7 3.125 A 0.785 0.785 0 0 0 15.835 3.238 Q 16.02 3.36 16.25 3.36 Q 16.44 3.36 16.61 3.268 A 0.973 0.973 0 0 0 16.846 3.09 A 0.903 0.903 0 0 0 16.895 3.035 Z M 9.47 2.22 L 10.895 2.22 A 1.218 1.218 0 0 0 10.875 1.991 Q 10.833 1.773 10.705 1.635 A 0.624 0.624 0 0 0 10.357 1.446 A 0.92 0.92 0 0 0 10.18 1.43 A 0.679 0.679 0 0 0 9.924 1.477 A 0.626 0.626 0 0 0 9.7 1.632 A 0.758 0.758 0 0 0 9.553 1.867 Q 9.491 2.018 9.47 2.22 Z M 14.13 0.655 Q 14 0.655 13.908 0.56 A 0.332 0.332 0 0 1 13.84 0.461 A 0.3 0.3 0 0 1 13.815 0.34 Q 13.815 0.195 13.9 0.11 A 0.283 0.283 0 0 1 14.047 0.033 A 0.413 0.413 0 0 1 14.13 0.025 A 0.303 0.303 0 0 1 14.35 0.115 A 0.371 0.371 0 0 1 14.352 0.117 Q 14.445 0.21 14.445 0.34 A 0.376 0.376 0 0 1 14.431 0.444 A 0.289 0.289 0 0 1 14.36 0.567 Q 14.275 0.655 14.13 0.655 Z" vector-effect="non-scaling-stroke"/></g></svg>