<svg width="16.52" height="3.62" viewBox="0 0 16.52 3.62" xmlns="http://www.w3.org/2000/svg"><g id="svgGroup" stroke-linecap="round" fill-rule="evenodd" font-size="9pt" stroke="#ffffff" stroke-width="0" fill="#ffffff" style="stroke:#ffffff;stroke-width:0;fill:#ffffff"><path d="M 0.45 3.56 L 0 3.56 L 0 0.06 L 0.63 0.06 L 2.175 2.97 L 2.175 0.06 L 2.625 0.06 L 2.625 3.56 L 2.005 3.56 L 0.45 0.67 L 0.45 3.56 Z M 14.08 3.265 L 14.32 2.865 Q 14.5 3.015 14.725 3.11 A 1.167 1.167 0 0 0 14.994 3.186 A 1.606 1.606 0 0 0 15.25 3.205 A 1.399 1.399 0 0 0 15.477 3.188 Q 15.681 3.154 15.82 3.055 A 0.514 0.514 0 0 0 15.96 2.91 Q 16.03 2.797 16.03 2.65 Q 16.03 2.505 15.97 2.393 Q 15.91 2.281 15.739 2.174 A 1.566 1.566 0 0 0 15.737 2.173 A 1.605 1.605 0 0 0 15.614 2.104 Q 15.482 2.037 15.293 1.964 A 5.93 5.93 0 0 0 15.23 1.94 Q 14.975 1.841 14.793 1.741 A 1.975 1.975 0 0 1 14.655 1.658 Q 14.456 1.526 14.362 1.359 A 0.665 0.665 0 0 1 14.347 1.333 Q 14.255 1.15 14.255 0.9 Q 14.255 0.65 14.393 0.448 Q 14.53 0.245 14.798 0.123 A 1.278 1.278 0 0 1 15.092 0.031 Q 15.255 0 15.445 0 Q 15.755 0 16.003 0.063 Q 16.25 0.125 16.485 0.24 L 16.31 0.645 A 1.575 1.575 0 0 0 16.104 0.544 A 2.084 2.084 0 0 0 15.912 0.478 Q 15.685 0.41 15.435 0.41 Q 15.105 0.41 14.915 0.54 A 0.495 0.495 0 0 0 14.807 0.638 A 0.368 0.368 0 0 0 14.725 0.875 A 0.523 0.523 0 0 0 14.74 1.001 A 0.428 0.428 0 0 0 14.78 1.105 A 0.346 0.346 0 0 0 14.833 1.176 Q 14.89 1.235 14.985 1.292 A 1.171 1.171 0 0 0 14.997 1.3 Q 15.16 1.395 15.485 1.515 A 4.061 4.061 0 0 1 15.734 1.616 Q 15.953 1.715 16.103 1.82 A 1.302 1.302 0 0 1 16.254 1.944 Q 16.334 2.02 16.386 2.101 A 0.711 0.711 0 0 1 16.425 2.168 A 0.879 0.879 0 0 1 16.512 2.461 A 1.108 1.108 0 0 1 16.52 2.595 A 1.086 1.086 0 0 1 16.487 2.87 A 0.855 0.855 0 0 1 16.357 3.15 A 0.981 0.981 0 0 1 16.011 3.451 A 1.218 1.218 0 0 1 15.907 3.5 A 1.526 1.526 0 0 1 15.537 3.6 A 2.001 2.001 0 0 1 15.25 3.62 A 2.368 2.368 0 0 1 14.861 3.589 A 1.902 1.902 0 0 1 14.585 3.523 A 1.91 1.91 0 0 1 14.317 3.413 A 1.422 1.422 0 0 1 14.08 3.265 Z M 8.245 3.315 L 7.905 3.605 L 7.03 2.52 L 6.165 3.595 L 5.845 3.315 L 6.77 2.24 L 5.88 1.21 L 6.23 0.905 L 7.035 1.945 L 7.825 0.925 L 8.16 1.21 L 7.295 2.22 L 8.245 3.315 Z M 5.58 2.445 L 3.76 2.445 A 1.204 1.204 0 0 0 3.817 2.696 Q 3.876 2.866 3.987 2.986 A 0.749 0.749 0 0 0 4.015 3.015 A 0.707 0.707 0 0 0 4.396 3.206 A 1.001 1.001 0 0 0 4.57 3.22 Q 4.795 3.22 4.975 3.173 Q 5.155 3.125 5.32 3.05 L 5.425 3.435 A 2.038 2.038 0 0 1 5.208 3.516 A 2.593 2.593 0 0 1 5.02 3.568 A 1.946 1.946 0 0 1 4.765 3.608 A 2.601 2.601 0 0 1 4.515 3.62 A 1.416 1.416 0 0 1 4.128 3.57 A 1.055 1.055 0 0 1 3.627 3.263 A 1.176 1.176 0 0 1 3.367 2.786 Q 3.317 2.611 3.304 2.402 A 2.356 2.356 0 0 1 3.3 2.26 A 1.768 1.768 0 0 1 3.342 1.869 A 1.442 1.442 0 0 1 3.448 1.563 A 1.232 1.232 0 0 1 3.698 1.208 A 1.144 1.144 0 0 1 3.86 1.078 A 1.052 1.052 0 0 1 4.373 0.904 A 1.31 1.31 0 0 1 4.475 0.9 A 1.428 1.428 0 0 1 4.749 0.925 Q 4.916 0.957 5.049 1.033 A 0.861 0.861 0 0 1 5.097 1.063 Q 5.345 1.225 5.47 1.5 A 1.409 1.409 0 0 1 5.591 1.993 A 1.672 1.672 0 0 1 5.595 2.105 A 3.76 3.76 0 0 1 5.58 2.44 A 3.529 3.529 0 0 1 5.58 2.445 Z M 8.795 2.665 L 8.795 1.445 L 8.345 1.445 L 8.345 1.055 L 8.805 1.055 L 8.9 0.235 L 9.245 0.235 L 9.245 1.055 L 9.965 1.055 L 9.965 1.445 L 9.245 1.445 L 9.245 2.7 A 1.078 1.078 0 0 0 9.253 2.84 Q 9.273 2.992 9.341 3.077 A 0.278 0.278 0 0 0 9.368 3.105 Q 9.49 3.22 9.66 3.22 Q 9.785 3.22 9.898 3.18 A 1.287 1.287 0 0 0 10.056 3.112 A 1.138 1.138 0 0 0 10.105 3.085 L 10.23 3.445 A 0.927 0.927 0 0 1 10.149 3.488 Q 10.069 3.526 9.96 3.563 Q 9.79 3.62 9.605 3.62 A 0.916 0.916 0 0 1 9.346 3.585 A 0.697 0.697 0 0 1 9.013 3.373 A 0.806 0.806 0 0 1 8.851 3.077 Q 8.795 2.899 8.795 2.665 Z M 11.78 3.33 L 12.01 2.965 A 0.843 0.843 0 0 0 12.214 3.121 A 0.971 0.971 0 0 0 12.25 3.14 A 0.656 0.656 0 0 0 12.444 3.203 A 0.597 0.597 0 0 0 12.535 3.21 A 0.537 0.537 0 0 0 12.71 3.183 A 0.447 0.447 0 0 0 12.915 3.038 Q 13.055 2.865 13.055 2.455 L 13.055 0.06 L 13.53 0.06 L 13.53 2.405 Q 13.53 3.04 13.26 3.33 A 0.896 0.896 0 0 1 12.67 3.614 A 1.234 1.234 0 0 1 12.55 3.62 A 1.172 1.172 0 0 1 12.146 3.551 A 1.12 1.12 0 0 1 12.118 3.54 A 1.141 1.141 0 0 1 11.921 3.441 A 0.909 0.909 0 0 1 11.78 3.33 Z M 3.755 2.08 L 5.18 2.08 A 1.218 1.218 0 0 0 5.16 1.851 Q 5.118 1.633 4.99 1.495 A 0.624 0.624 0 0 0 4.642 1.306 A 0.92 0.92 0 0 0 4.465 1.29 A 0.679 0.679 0 0 0 4.209 1.337 A 0.626 0.626 0 0 0 3.985 1.493 A 0.758 0.758 0 0 0 3.838 1.727 Q 3.776 1.878 3.755 2.08 Z" vector-effect="non-scaling-stroke"/></g></svg>