<svg width="11.65" height="3.76" viewBox="0 0 11.65 3.76" xmlns="http://www.w3.org/2000/svg"><g id="svgGroup" stroke-linecap="round" fill-rule="evenodd" font-size="9pt" stroke="#ffffff" stroke-width="0" fill="#ffffff" style="stroke:#ffffff;stroke-width:0;fill:#ffffff"><path d="M 0.45 3.7 L 0 3.7 L 0 0.2 L 0.63 0.2 L 2.175 3.11 L 2.175 0.2 L 2.625 0.2 L 2.625 3.7 L 2.005 3.7 L 0.45 0.81 L 0.45 3.7 Z M 8.185 1.36 L 8.185 0 L 8.635 0 L 8.635 3.07 A 0.607 0.607 0 0 0 8.64 3.152 Q 8.657 3.273 8.728 3.318 Q 8.82 3.375 8.93 3.375 L 8.835 3.725 A 0.893 0.893 0 0 1 8.622 3.702 Q 8.339 3.632 8.258 3.354 A 0.67 0.67 0 0 1 8.255 3.345 Q 8.147 3.498 7.953 3.626 A 1.591 1.591 0 0 1 7.948 3.63 Q 7.761 3.753 7.483 3.76 A 1.346 1.346 0 0 1 7.45 3.76 Q 7.13 3.76 6.865 3.595 Q 6.6 3.43 6.445 3.128 A 1.377 1.377 0 0 1 6.316 2.73 A 1.861 1.861 0 0 1 6.29 2.415 A 1.697 1.697 0 0 1 6.334 2.019 A 1.398 1.398 0 0 1 6.448 1.71 Q 6.605 1.4 6.868 1.22 Q 7.13 1.04 7.445 1.04 A 1.082 1.082 0 0 1 7.659 1.06 A 0.797 0.797 0 0 1 7.893 1.145 Q 8.036 1.225 8.131 1.309 A 0.83 0.83 0 0 1 8.185 1.36 Z M 11.635 2.585 L 9.815 2.585 A 1.204 1.204 0 0 0 9.872 2.836 Q 9.931 3.006 10.042 3.126 A 0.749 0.749 0 0 0 10.07 3.155 A 0.707 0.707 0 0 0 10.451 3.346 A 1.001 1.001 0 0 0 10.625 3.36 Q 10.85 3.36 11.03 3.313 Q 11.21 3.265 11.375 3.19 L 11.48 3.575 A 2.038 2.038 0 0 1 11.263 3.656 A 2.593 2.593 0 0 1 11.075 3.707 A 1.946 1.946 0 0 1 10.82 3.748 A 2.601 2.601 0 0 1 10.57 3.76 A 1.416 1.416 0 0 1 10.183 3.71 A 1.055 1.055 0 0 1 9.682 3.403 A 1.176 1.176 0 0 1 9.422 2.926 Q 9.372 2.751 9.359 2.542 A 2.356 2.356 0 0 1 9.355 2.4 A 1.768 1.768 0 0 1 9.397 2.009 A 1.442 1.442 0 0 1 9.503 1.702 A 1.232 1.232 0 0 1 9.753 1.348 A 1.144 1.144 0 0 1 9.915 1.217 A 1.052 1.052 0 0 1 10.428 1.044 A 1.31 1.31 0 0 1 10.53 1.04 A 1.428 1.428 0 0 1 10.804 1.065 Q 10.971 1.097 11.104 1.173 A 0.861 0.861 0 0 1 11.152 1.203 Q 11.4 1.365 11.525 1.64 A 1.409 1.409 0 0 1 11.646 2.133 A 1.672 1.672 0 0 1 11.65 2.245 A 3.76 3.76 0 0 1 11.635 2.58 A 3.529 3.529 0 0 1 11.635 2.585 Z M 4.138 3.693 A 1.361 1.361 0 0 0 4.57 3.76 Q 4.94 3.76 5.233 3.59 Q 5.525 3.42 5.695 3.113 A 1.313 1.313 0 0 0 5.828 2.755 A 1.709 1.709 0 0 0 5.865 2.39 Q 5.865 1.975 5.693 1.673 Q 5.52 1.37 5.228 1.205 A 1.242 1.242 0 0 0 4.995 1.104 A 1.387 1.387 0 0 0 4.57 1.04 A 1.566 1.566 0 0 0 4.491 1.042 A 1.308 1.308 0 0 0 3.91 1.205 Q 3.615 1.37 3.445 1.675 A 1.301 1.301 0 0 0 3.308 2.055 A 1.75 1.75 0 0 0 3.275 2.4 A 1.741 1.741 0 0 0 3.288 2.618 A 1.373 1.373 0 0 0 3.443 3.107 Q 3.61 3.415 3.905 3.588 A 1.228 1.228 0 0 0 4.138 3.693 Z M 4.57 3.36 A 0.937 0.937 0 0 0 4.831 3.325 A 0.7 0.7 0 0 0 5.185 3.093 A 0.94 0.94 0 0 0 5.376 2.688 A 1.355 1.355 0 0 0 5.405 2.4 A 1.069 1.069 0 0 0 5.344 2.036 A 1.001 1.001 0 0 0 5.295 1.922 A 0.96 0.96 0 0 0 5.086 1.644 A 0.909 0.909 0 0 0 4.998 1.572 Q 4.81 1.44 4.57 1.44 A 0.962 0.962 0 0 0 4.309 1.474 A 0.702 0.702 0 0 0 3.955 1.7 A 0.894 0.894 0 0 0 3.771 2.069 Q 3.738 2.202 3.735 2.357 A 1.643 1.643 0 0 0 3.735 2.39 Q 3.735 2.65 3.845 2.873 A 0.972 0.972 0 0 0 4.021 3.124 A 0.881 0.881 0 0 0 4.142 3.228 Q 4.33 3.36 4.57 3.36 Z M 8.185 3.045 L 8.185 1.755 A 0.792 0.792 0 0 0 8.079 1.646 Q 8.01 1.587 7.92 1.533 Q 7.75 1.43 7.545 1.43 A 0.747 0.747 0 0 0 7.297 1.47 A 0.669 0.669 0 0 0 7.125 1.56 A 0.835 0.835 0 0 0 6.867 1.867 A 0.996 0.996 0 0 0 6.848 1.908 Q 6.75 2.125 6.75 2.4 A 1.238 1.238 0 0 0 6.78 2.676 A 1.016 1.016 0 0 0 6.855 2.892 A 0.91 0.91 0 0 0 7.007 3.118 A 0.806 0.806 0 0 0 7.143 3.235 Q 7.325 3.36 7.55 3.36 Q 7.735 3.36 7.903 3.273 Q 8.07 3.185 8.185 3.045 Z M 9.81 2.22 L 11.235 2.22 A 1.218 1.218 0 0 0 11.215 1.991 Q 11.173 1.773 11.045 1.635 A 0.624 0.624 0 0 0 10.697 1.446 A 0.92 0.92 0 0 0 10.52 1.43 A 0.679 0.679 0 0 0 10.264 1.477 A 0.626 0.626 0 0 0 10.04 1.632 A 0.758 0.758 0 0 0 9.893 1.867 Q 9.831 2.018 9.81 2.22 Z" vector-effect="non-scaling-stroke"/></g></svg>