<svg width="12.735" height="3.6" viewBox="0 0 12.735 3.6" xmlns="http://www.w3.org/2000/svg"><g id="svgGroup" stroke-linecap="round" fill-rule="evenodd" font-size="9pt" stroke="#ffffff" stroke-width="0" fill="#ffffff" style="stroke:#ffffff;stroke-width:0;fill:#ffffff"><path d="M 2.485 3.39 L 2.04 3.6 L 1.605 2.65 Q 1.475 2.37 1.291 2.217 A 0.811 0.811 0 0 0 1.19 2.145 Q 0.972 2.014 0.648 1.998 A 1.892 1.892 0 0 0 0.55 1.995 L 0.475 1.995 L 0.475 3.54 L 0 3.54 L 0 0.05 A 12.395 12.395 0 0 1 0.385 0.02 A 10.79 10.79 0 0 1 0.508 0.013 Q 0.75 0 1.025 0 Q 1.426 0 1.702 0.102 A 1.005 1.005 0 0 1 1.988 0.26 Q 2.31 0.52 2.31 0.93 A 0.994 0.994 0 0 1 2.277 1.191 A 0.734 0.734 0 0 1 2.093 1.518 A 1.051 1.051 0 0 1 1.846 1.701 Q 1.683 1.792 1.465 1.85 A 1.183 1.183 0 0 1 1.636 1.943 A 1.021 1.021 0 0 1 1.705 1.993 A 0.879 0.879 0 0 1 1.808 2.089 Q 1.852 2.137 1.895 2.196 A 1.461 1.461 0 0 1 1.908 2.213 A 1.556 1.556 0 0 1 1.981 2.327 Q 2.043 2.433 2.105 2.57 L 2.485 3.39 Z M 5.14 2.425 L 3.32 2.425 A 1.204 1.204 0 0 0 3.377 2.676 Q 3.436 2.846 3.547 2.966 A 0.749 0.749 0 0 0 3.575 2.995 A 0.707 0.707 0 0 0 3.956 3.186 A 1.001 1.001 0 0 0 4.13 3.2 Q 4.355 3.2 4.535 3.153 Q 4.715 3.105 4.88 3.03 L 4.985 3.415 A 2.038 2.038 0 0 1 4.768 3.496 A 2.593 2.593 0 0 1 4.58 3.548 A 1.946 1.946 0 0 1 4.325 3.588 A 2.601 2.601 0 0 1 4.075 3.6 A 1.416 1.416 0 0 1 3.688 3.55 A 1.055 1.055 0 0 1 3.187 3.243 A 1.176 1.176 0 0 1 2.927 2.766 Q 2.877 2.591 2.864 2.382 A 2.356 2.356 0 0 1 2.86 2.24 A 1.768 1.768 0 0 1 2.902 1.849 A 1.442 1.442 0 0 1 3.008 1.543 A 1.232 1.232 0 0 1 3.258 1.188 A 1.144 1.144 0 0 1 3.42 1.058 A 1.052 1.052 0 0 1 3.933 0.884 A 1.31 1.31 0 0 1 4.035 0.88 A 1.428 1.428 0 0 1 4.309 0.905 Q 4.476 0.937 4.609 1.013 A 0.861 0.861 0 0 1 4.657 1.043 Q 4.905 1.205 5.03 1.48 A 1.409 1.409 0 0 1 5.151 1.973 A 1.672 1.672 0 0 1 5.155 2.085 A 3.76 3.76 0 0 1 5.14 2.42 A 3.529 3.529 0 0 1 5.14 2.425 Z M 11.3 2.645 L 11.3 1.425 L 10.85 1.425 L 10.85 1.035 L 11.31 1.035 L 11.405 0.215 L 11.75 0.215 L 11.75 1.035 L 12.47 1.035 L 12.47 1.425 L 11.75 1.425 L 11.75 2.68 A 1.078 1.078 0 0 0 11.758 2.82 Q 11.778 2.972 11.846 3.057 A 0.278 0.278 0 0 0 11.873 3.085 Q 11.995 3.2 12.165 3.2 Q 12.29 3.2 12.403 3.16 A 1.287 1.287 0 0 0 12.561 3.092 A 1.138 1.138 0 0 0 12.61 3.065 L 12.735 3.425 A 0.927 0.927 0 0 1 12.654 3.468 Q 12.574 3.506 12.465 3.543 Q 12.295 3.6 12.11 3.6 A 0.916 0.916 0 0 1 11.851 3.565 A 0.697 0.697 0 0 1 11.518 3.353 A 0.806 0.806 0 0 1 11.356 3.057 Q 11.3 2.879 11.3 2.645 Z M 10.635 1.035 L 10.5 1.415 A 1.521 1.521 0 0 0 10.355 1.351 A 1.171 1.171 0 0 0 10.233 1.313 A 1.027 1.027 0 0 0 10.08 1.286 A 1.318 1.318 0 0 0 9.95 1.28 A 0.794 0.794 0 0 0 9.587 1.362 A 0.807 0.807 0 0 0 9.362 1.533 Q 9.137 1.772 9.126 2.185 A 1.614 1.614 0 0 0 9.125 2.23 A 1.26 1.26 0 0 0 9.16 2.533 A 1.073 1.073 0 0 0 9.225 2.72 A 0.928 0.928 0 0 0 9.371 2.949 A 0.814 0.814 0 0 0 9.502 3.07 A 0.673 0.673 0 0 0 9.861 3.198 A 0.845 0.845 0 0 0 9.92 3.2 A 1.421 1.421 0 0 0 10.065 3.193 Q 10.137 3.186 10.198 3.171 A 0.754 0.754 0 0 0 10.245 3.158 Q 10.38 3.115 10.535 3.035 L 10.675 3.415 A 1.427 1.427 0 0 1 10.444 3.515 A 1.714 1.714 0 0 1 10.327 3.55 Q 10.135 3.6 9.89 3.6 Q 9.52 3.6 9.243 3.428 Q 8.965 3.255 8.815 2.948 A 1.468 1.468 0 0 1 8.683 2.507 A 1.901 1.901 0 0 1 8.665 2.24 A 1.602 1.602 0 0 1 8.731 1.776 A 1.44 1.44 0 0 1 8.817 1.555 Q 8.97 1.245 9.255 1.063 A 1.153 1.153 0 0 1 9.738 0.891 A 1.48 1.48 0 0 1 9.925 0.88 Q 10.126 0.88 10.283 0.913 A 1.198 1.198 0 0 1 10.312 0.92 Q 10.48 0.96 10.635 1.035 Z M 7.535 1.15 L 7.535 0.94 L 7.945 0.94 L 7.945 2.91 A 0.607 0.607 0 0 0 7.95 2.992 Q 7.967 3.114 8.038 3.158 Q 8.13 3.215 8.24 3.215 L 8.145 3.565 Q 7.677 3.565 7.57 3.194 A 0.679 0.679 0 0 1 7.565 3.175 A 1.065 1.065 0 0 1 7.41 3.346 A 1.425 1.425 0 0 1 7.253 3.468 Q 7.067 3.592 6.786 3.6 A 1.36 1.36 0 0 1 6.75 3.6 Q 6.425 3.6 6.16 3.435 A 1.147 1.147 0 0 1 5.789 3.059 A 1.396 1.396 0 0 1 5.737 2.968 Q 5.58 2.665 5.58 2.255 A 1.657 1.657 0 0 1 5.63 1.842 A 1.398 1.398 0 0 1 5.737 1.555 Q 5.895 1.245 6.172 1.063 A 1.115 1.115 0 0 1 6.732 0.882 A 1.369 1.369 0 0 1 6.81 0.88 A 1.129 1.129 0 0 1 7.05 0.905 A 0.935 0.935 0 0 1 7.217 0.958 A 1.3 1.3 0 0 1 7.432 1.072 A 1.105 1.105 0 0 1 7.535 1.15 Z M 7.495 2.875 L 7.495 1.48 Q 7.36 1.385 7.198 1.328 Q 7.035 1.27 6.855 1.27 A 0.796 0.796 0 0 0 6.606 1.308 A 0.701 0.701 0 0 0 6.433 1.393 A 0.815 0.815 0 0 0 6.182 1.664 A 0.998 0.998 0 0 0 6.145 1.733 A 1.033 1.033 0 0 0 6.057 2.016 A 1.384 1.384 0 0 0 6.04 2.24 Q 6.04 2.52 6.145 2.738 A 0.88 0.88 0 0 0 6.3 2.965 A 0.785 0.785 0 0 0 6.435 3.078 Q 6.62 3.2 6.85 3.2 Q 7.04 3.2 7.21 3.108 A 0.973 0.973 0 0 0 7.446 2.93 A 0.903 0.903 0 0 0 7.495 2.875 Z M 0.475 0.42 L 0.475 1.595 L 1.025 1.595 A 1.324 1.324 0 0 0 1.271 1.573 Q 1.415 1.546 1.531 1.484 A 0.747 0.747 0 0 0 1.61 1.435 A 0.514 0.514 0 0 0 1.83 1.059 A 0.726 0.726 0 0 0 1.835 0.975 A 0.491 0.491 0 0 0 1.671 0.602 A 0.664 0.664 0 0 0 1.625 0.563 A 0.696 0.696 0 0 0 1.407 0.451 Q 1.244 0.4 1.025 0.4 Q 0.855 0.4 0.72 0.405 Q 0.585 0.41 0.475 0.42 Z M 3.315 2.06 L 4.74 2.06 A 1.218 1.218 0 0 0 4.72 1.831 Q 4.678 1.613 4.55 1.475 A 0.624 0.624 0 0 0 4.202 1.286 A 0.92 0.92 0 0 0 4.025 1.27 A 0.679 0.679 0 0 0 3.769 1.317 A 0.626 0.626 0 0 0 3.545 1.473 A 0.758 0.758 0 0 0 3.398 1.707 Q 3.336 1.859 3.315 2.06 Z" vector-effect="non-scaling-stroke"/></g></svg>