<svg width="28.625" height="3.76" viewBox="0 0 28.625 3.76" xmlns="http://www.w3.org/2000/svg"><g id="svgGroup" stroke-linecap="round" fill-rule="evenodd" font-size="9pt" stroke="#ffffff" stroke-width="0" fill="#ffffff" style="stroke:#ffffff;stroke-width:0;fill:#ffffff"><path d="M 2.485 3.55 L 2.04 3.76 L 1.605 2.81 Q 1.475 2.53 1.291 2.377 A 0.811 0.811 0 0 0 1.19 2.305 Q 0.972 2.174 0.648 2.157 A 1.892 1.892 0 0 0 0.55 2.155 L 0.475 2.155 L 0.475 3.7 L 0 3.7 L 0 0.21 A 12.395 12.395 0 0 1 0.385 0.18 A 10.79 10.79 0 0 1 0.508 0.172 Q 0.75 0.16 1.025 0.16 Q 1.426 0.16 1.702 0.262 A 1.005 1.005 0 0 1 1.988 0.42 Q 2.31 0.68 2.31 1.09 A 0.994 0.994 0 0 1 2.277 1.351 A 0.734 0.734 0 0 1 2.093 1.678 A 1.051 1.051 0 0 1 1.846 1.861 Q 1.683 1.952 1.465 2.01 A 1.183 1.183 0 0 1 1.636 2.103 A 1.021 1.021 0 0 1 1.705 2.153 A 0.879 0.879 0 0 1 1.808 2.249 Q 1.852 2.297 1.895 2.356 A 1.461 1.461 0 0 1 1.908 2.372 A 1.556 1.556 0 0 1 1.981 2.487 Q 2.043 2.593 2.105 2.73 L 2.485 3.55 Z M 17.22 3.55 L 16.775 3.76 L 16.34 2.81 Q 16.21 2.53 16.026 2.377 A 0.811 0.811 0 0 0 15.925 2.305 Q 15.707 2.174 15.383 2.157 A 1.892 1.892 0 0 0 15.285 2.155 L 15.21 2.155 L 15.21 3.7 L 14.735 3.7 L 14.735 0.21 A 12.395 12.395 0 0 1 15.12 0.18 A 10.79 10.79 0 0 1 15.243 0.172 Q 15.485 0.16 15.76 0.16 Q 16.161 0.16 16.437 0.262 A 1.005 1.005 0 0 1 16.723 0.42 Q 17.045 0.68 17.045 1.09 A 0.994 0.994 0 0 1 17.012 1.351 A 0.734 0.734 0 0 1 16.828 1.678 A 1.051 1.051 0 0 1 16.581 1.861 Q 16.418 1.952 16.2 2.01 A 1.183 1.183 0 0 1 16.371 2.103 A 1.021 1.021 0 0 1 16.44 2.153 A 0.879 0.879 0 0 1 16.543 2.249 Q 16.587 2.297 16.63 2.356 A 1.461 1.461 0 0 1 16.643 2.372 A 1.556 1.556 0 0 1 16.716 2.487 Q 16.778 2.593 16.84 2.73 L 17.22 3.55 Z M 23.53 2.79 L 23.53 1.1 L 23.98 1.1 L 23.98 2.73 A 1.149 1.149 0 0 0 23.993 2.907 Q 24.021 3.086 24.11 3.198 Q 24.24 3.36 24.49 3.36 Q 24.695 3.36 24.888 3.278 Q 25.08 3.195 25.23 3.055 L 25.23 1.1 L 25.68 1.1 L 25.68 3.025 A 0.78 0.78 0 0 0 25.685 3.118 Q 25.702 3.256 25.773 3.308 Q 25.865 3.375 25.975 3.375 L 25.88 3.725 Q 25.416 3.725 25.305 3.356 A 0.663 0.663 0 0 1 25.305 3.355 Q 25.13 3.535 24.9 3.648 Q 24.67 3.76 24.405 3.76 Q 24.18 3.76 23.98 3.665 A 0.722 0.722 0 0 1 23.705 3.433 A 0.913 0.913 0 0 1 23.655 3.358 A 0.812 0.812 0 0 1 23.572 3.153 Q 23.53 2.995 23.53 2.79 Z M 28.625 3.455 L 28.285 3.745 L 27.41 2.66 L 26.545 3.735 L 26.225 3.455 L 27.15 2.38 L 26.26 1.35 L 26.61 1.045 L 27.415 2.085 L 28.205 1.065 L 28.54 1.35 L 27.675 2.36 L 28.625 3.455 Z M 22.21 1.36 L 22.21 0 L 22.66 0 L 22.66 3.07 A 0.607 0.607 0 0 0 22.665 3.152 Q 22.682 3.273 22.753 3.318 Q 22.845 3.375 22.955 3.375 L 22.86 3.725 A 0.893 0.893 0 0 1 22.647 3.702 Q 22.364 3.632 22.283 3.354 A 0.67 0.67 0 0 1 22.28 3.345 Q 22.172 3.498 21.978 3.626 A 1.591 1.591 0 0 1 21.973 3.63 Q 21.786 3.753 21.508 3.76 A 1.346 1.346 0 0 1 21.475 3.76 Q 21.155 3.76 20.89 3.595 Q 20.625 3.43 20.47 3.128 A 1.377 1.377 0 0 1 20.341 2.73 A 1.861 1.861 0 0 1 20.315 2.415 A 1.697 1.697 0 0 1 20.359 2.019 A 1.398 1.398 0 0 1 20.473 1.71 Q 20.63 1.4 20.893 1.22 Q 21.155 1.04 21.47 1.04 A 1.082 1.082 0 0 1 21.684 1.06 A 0.797 0.797 0 0 1 21.918 1.145 Q 22.061 1.225 22.156 1.309 A 0.83 0.83 0 0 1 22.21 1.36 Z M 5.14 2.585 L 3.32 2.585 A 1.204 1.204 0 0 0 3.377 2.836 Q 3.436 3.006 3.547 3.126 A 0.749 0.749 0 0 0 3.575 3.155 A 0.707 0.707 0 0 0 3.956 3.346 A 1.001 1.001 0 0 0 4.13 3.36 Q 4.355 3.36 4.535 3.313 Q 4.715 3.265 4.88 3.19 L 4.985 3.575 A 2.038 2.038 0 0 1 4.768 3.656 A 2.593 2.593 0 0 1 4.58 3.707 A 1.946 1.946 0 0 1 4.325 3.748 A 2.601 2.601 0 0 1 4.075 3.76 A 1.416 1.416 0 0 1 3.688 3.71 A 1.055 1.055 0 0 1 3.187 3.403 A 1.176 1.176 0 0 1 2.927 2.926 Q 2.877 2.751 2.864 2.542 A 2.356 2.356 0 0 1 2.86 2.4 A 1.768 1.768 0 0 1 2.902 2.009 A 1.442 1.442 0 0 1 3.008 1.702 A 1.232 1.232 0 0 1 3.258 1.348 A 1.144 1.144 0 0 1 3.42 1.217 A 1.052 1.052 0 0 1 3.933 1.044 A 1.31 1.31 0 0 1 4.035 1.04 A 1.428 1.428 0 0 1 4.309 1.065 Q 4.476 1.097 4.609 1.173 A 0.861 0.861 0 0 1 4.657 1.203 Q 4.905 1.365 5.03 1.64 A 1.409 1.409 0 0 1 5.151 2.133 A 1.672 1.672 0 0 1 5.155 2.245 A 3.76 3.76 0 0 1 5.14 2.58 A 3.529 3.529 0 0 1 5.14 2.585 Z M 19.875 2.585 L 18.055 2.585 A 1.204 1.204 0 0 0 18.112 2.836 Q 18.171 3.006 18.282 3.126 A 0.749 0.749 0 0 0 18.31 3.155 A 0.707 0.707 0 0 0 18.691 3.346 A 1.001 1.001 0 0 0 18.865 3.36 Q 19.09 3.36 19.27 3.313 Q 19.45 3.265 19.615 3.19 L 19.72 3.575 A 2.038 2.038 0 0 1 19.503 3.656 A 2.593 2.593 0 0 1 19.315 3.707 A 1.946 1.946 0 0 1 19.06 3.748 A 2.601 2.601 0 0 1 18.81 3.76 A 1.416 1.416 0 0 1 18.423 3.71 A 1.055 1.055 0 0 1 17.922 3.403 A 1.176 1.176 0 0 1 17.662 2.926 Q 17.612 2.751 17.599 2.542 A 2.356 2.356 0 0 1 17.595 2.4 A 1.768 1.768 0 0 1 17.637 2.009 A 1.442 1.442 0 0 1 17.743 1.702 A 1.232 1.232 0 0 1 17.993 1.348 A 1.144 1.144 0 0 1 18.155 1.217 A 1.052 1.052 0 0 1 18.668 1.044 A 1.31 1.31 0 0 1 18.77 1.04 A 1.428 1.428 0 0 1 19.044 1.065 Q 19.211 1.097 19.344 1.173 A 0.861 0.861 0 0 1 19.392 1.203 Q 19.64 1.365 19.765 1.64 A 1.409 1.409 0 0 1 19.886 2.133 A 1.672 1.672 0 0 1 19.89 2.245 A 3.76 3.76 0 0 1 19.875 2.58 A 3.529 3.529 0 0 1 19.875 2.585 Z M 11.3 2.805 L 11.3 1.585 L 10.85 1.585 L 10.85 1.195 L 11.31 1.195 L 11.405 0.375 L 11.75 0.375 L 11.75 1.195 L 12.47 1.195 L 12.47 1.585 L 11.75 1.585 L 11.75 2.84 A 1.078 1.078 0 0 0 11.758 2.98 Q 11.778 3.132 11.846 3.217 A 0.278 0.278 0 0 0 11.873 3.245 Q 11.995 3.36 12.165 3.36 Q 12.29 3.36 12.403 3.32 A 1.287 1.287 0 0 0 12.561 3.252 A 1.138 1.138 0 0 0 12.61 3.225 L 12.735 3.585 A 0.927 0.927 0 0 1 12.654 3.628 Q 12.574 3.666 12.465 3.703 Q 12.295 3.76 12.11 3.76 A 0.916 0.916 0 0 1 11.851 3.725 A 0.697 0.697 0 0 1 11.518 3.512 A 0.806 0.806 0 0 1 11.356 3.217 Q 11.3 3.039 11.3 2.805 Z M 10.635 1.195 L 10.5 1.575 A 1.521 1.521 0 0 0 10.355 1.511 A 1.171 1.171 0 0 0 10.233 1.472 A 1.027 1.027 0 0 0 10.08 1.446 A 1.318 1.318 0 0 0 9.95 1.44 A 0.794 0.794 0 0 0 9.587 1.522 A 0.807 0.807 0 0 0 9.362 1.693 Q 9.137 1.932 9.126 2.345 A 1.614 1.614 0 0 0 9.125 2.39 A 1.26 1.26 0 0 0 9.16 2.693 A 1.073 1.073 0 0 0 9.225 2.88 A 0.928 0.928 0 0 0 9.371 3.109 A 0.814 0.814 0 0 0 9.502 3.23 A 0.673 0.673 0 0 0 9.861 3.358 A 0.845 0.845 0 0 0 9.92 3.36 A 1.421 1.421 0 0 0 10.065 3.353 Q 10.137 3.346 10.198 3.331 A 0.754 0.754 0 0 0 10.245 3.318 Q 10.38 3.275 10.535 3.195 L 10.675 3.575 A 1.427 1.427 0 0 1 10.444 3.675 A 1.714 1.714 0 0 1 10.327 3.71 Q 10.135 3.76 9.89 3.76 Q 9.52 3.76 9.243 3.588 Q 8.965 3.415 8.815 3.108 A 1.468 1.468 0 0 1 8.683 2.667 A 1.901 1.901 0 0 1 8.665 2.4 A 1.602 1.602 0 0 1 8.731 1.936 A 1.44 1.44 0 0 1 8.817 1.715 Q 8.97 1.405 9.255 1.223 A 1.153 1.153 0 0 1 9.738 1.051 A 1.48 1.48 0 0 1 9.925 1.04 Q 10.126 1.04 10.283 1.073 A 1.198 1.198 0 0 1 10.312 1.08 Q 10.48 1.12 10.635 1.195 Z M 7.535 1.31 L 7.535 1.1 L 7.945 1.1 L 7.945 3.07 A 0.607 0.607 0 0 0 7.95 3.152 Q 7.967 3.273 8.038 3.318 Q 8.13 3.375 8.24 3.375 L 8.145 3.725 Q 7.677 3.725 7.57 3.354 A 0.679 0.679 0 0 1 7.565 3.335 A 1.065 1.065 0 0 1 7.41 3.506 A 1.425 1.425 0 0 1 7.253 3.628 Q 7.067 3.752 6.786 3.76 A 1.36 1.36 0 0 1 6.75 3.76 Q 6.425 3.76 6.16 3.595 A 1.147 1.147 0 0 1 5.789 3.219 A 1.396 1.396 0 0 1 5.737 3.128 Q 5.58 2.825 5.58 2.415 A 1.657 1.657 0 0 1 5.63 2.002 A 1.398 1.398 0 0 1 5.737 1.715 Q 5.895 1.405 6.172 1.223 A 1.115 1.115 0 0 1 6.732 1.042 A 1.369 1.369 0 0 1 6.81 1.04 A 1.129 1.129 0 0 1 7.05 1.065 A 0.935 0.935 0 0 1 7.217 1.118 A 1.3 1.3 0 0 1 7.432 1.232 A 1.105 1.105 0 0 1 7.535 1.31 Z M 7.495 3.035 L 7.495 1.64 Q 7.36 1.545 7.198 1.488 Q 7.035 1.43 6.855 1.43 A 0.796 0.796 0 0 0 6.606 1.468 A 0.701 0.701 0 0 0 6.433 1.552 A 0.815 0.815 0 0 0 6.182 1.824 A 0.998 0.998 0 0 0 6.145 1.893 A 1.033 1.033 0 0 0 6.057 2.176 A 1.384 1.384 0 0 0 6.04 2.4 Q 6.04 2.68 6.145 2.898 A 0.88 0.88 0 0 0 6.3 3.125 A 0.785 0.785 0 0 0 6.435 3.238 Q 6.62 3.36 6.85 3.36 Q 7.04 3.36 7.21 3.268 A 0.973 0.973 0 0 0 7.446 3.09 A 0.903 0.903 0 0 0 7.495 3.035 Z M 22.21 3.045 L 22.21 1.755 A 0.792 0.792 0 0 0 22.104 1.646 Q 22.035 1.587 21.945 1.533 Q 21.775 1.43 21.57 1.43 A 0.747 0.747 0 0 0 21.322 1.47 A 0.669 0.669 0 0 0 21.15 1.56 A 0.835 0.835 0 0 0 20.892 1.867 A 0.996 0.996 0 0 0 20.873 1.908 Q 20.775 2.125 20.775 2.4 A 1.238 1.238 0 0 0 20.805 2.676 A 1.016 1.016 0 0 0 20.88 2.892 A 0.91 0.91 0 0 0 21.032 3.118 A 0.806 0.806 0 0 0 21.168 3.235 Q 21.35 3.36 21.575 3.36 Q 21.76 3.36 21.928 3.273 Q 22.095 3.185 22.21 3.045 Z M 0.475 0.58 L 0.475 1.755 L 1.025 1.755 A 1.324 1.324 0 0 0 1.271 1.733 Q 1.415 1.706 1.531 1.644 A 0.747 0.747 0 0 0 1.61 1.595 A 0.514 0.514 0 0 0 1.83 1.219 A 0.726 0.726 0 0 0 1.835 1.135 A 0.491 0.491 0 0 0 1.671 0.762 A 0.664 0.664 0 0 0 1.625 0.722 A 0.696 0.696 0 0 0 1.407 0.611 Q 1.244 0.56 1.025 0.56 Q 0.855 0.56 0.72 0.565 Q 0.585 0.57 0.475 0.58 Z M 15.21 0.58 L 15.21 1.755 L 15.76 1.755 A 1.324 1.324 0 0 0 16.006 1.733 Q 16.15 1.706 16.266 1.644 A 0.747 0.747 0 0 0 16.345 1.595 A 0.514 0.514 0 0 0 16.565 1.219 A 0.726 0.726 0 0 0 16.57 1.135 A 0.491 0.491 0 0 0 16.406 0.762 A 0.664 0.664 0 0 0 16.36 0.722 A 0.696 0.696 0 0 0 16.142 0.611 Q 15.979 0.56 15.76 0.56 Q 15.59 0.56 15.455 0.565 Q 15.32 0.57 15.21 0.58 Z M 3.315 2.22 L 4.74 2.22 A 1.218 1.218 0 0 0 4.72 1.991 Q 4.678 1.773 4.55 1.635 A 0.624 0.624 0 0 0 4.202 1.446 A 0.92 0.92 0 0 0 4.025 1.43 A 0.679 0.679 0 0 0 3.769 1.477 A 0.626 0.626 0 0 0 3.545 1.632 A 0.758 0.758 0 0 0 3.398 1.867 Q 3.336 2.018 3.315 2.22 Z M 18.05 2.22 L 19.475 2.22 A 1.218 1.218 0 0 0 19.455 1.991 Q 19.413 1.773 19.285 1.635 A 0.624 0.624 0 0 0 18.937 1.446 A 0.92 0.92 0 0 0 18.76 1.43 A 0.679 0.679 0 0 0 18.504 1.477 A 0.626 0.626 0 0 0 18.28 1.632 A 0.758 0.758 0 0 0 18.133 1.867 Q 18.071 2.018 18.05 2.22 Z" vector-effect="non-scaling-stroke"/></g></svg>