<svg width="19.905" height="3.76" viewBox="0 0 19.905 3.76" xmlns="http://www.w3.org/2000/svg"><g id="svgGroup" stroke-linecap="round" fill-rule="evenodd" font-size="9pt" stroke="#ffffff" stroke-width="0" fill="#ffffff" style="stroke:#ffffff;stroke-width:0;fill:#ffffff"><path d="M 10.18 3.7 L 9.685 3.7 L 8.865 1.22 L 9.28 1.075 L 9.95 3.19 L 10.56 1.285 L 11.045 1.285 L 11.64 3.19 L 12.305 1.075 L 12.705 1.22 L 11.88 3.7 L 11.385 3.7 L 10.785 1.765 L 10.18 3.7 Z M 14.93 3.7 L 14.48 3.7 L 14.48 1.1 L 14.915 1.1 L 14.915 1.535 Q 15.055 1.325 15.273 1.183 A 0.866 0.866 0 0 1 15.628 1.051 A 1.131 1.131 0 0 1 15.79 1.04 A 1.161 1.161 0 0 1 16.043 1.066 Q 16.21 1.103 16.332 1.195 A 0.663 0.663 0 0 1 16.447 1.305 A 0.92 0.92 0 0 1 16.628 1.674 Q 16.66 1.806 16.664 1.96 A 1.688 1.688 0 0 1 16.665 2.005 L 16.665 3.7 L 16.215 3.7 L 16.215 2.055 A 0.963 0.963 0 0 0 16.198 1.868 Q 16.167 1.714 16.083 1.605 A 0.429 0.429 0 0 0 15.769 1.437 A 0.603 0.603 0 0 0 15.715 1.435 Q 15.485 1.435 15.28 1.598 Q 15.075 1.76 14.93 1.98 L 14.93 3.7 Z M 1.55 3.7 L 1.075 3.7 L 1.075 0.62 L 0 0.62 L 0 0.2 L 2.625 0.2 L 2.625 0.62 L 1.55 0.62 L 1.55 3.7 Z M 19.16 1.36 L 19.16 0 L 19.61 0 L 19.61 3.07 A 0.607 0.607 0 0 0 19.615 3.152 Q 19.632 3.273 19.703 3.318 Q 19.795 3.375 19.905 3.375 L 19.81 3.725 A 0.893 0.893 0 0 1 19.597 3.702 Q 19.314 3.632 19.233 3.354 A 0.67 0.67 0 0 1 19.23 3.345 Q 19.122 3.498 18.928 3.626 A 1.591 1.591 0 0 1 18.923 3.63 Q 18.736 3.753 18.458 3.76 A 1.346 1.346 0 0 1 18.425 3.76 Q 18.105 3.76 17.84 3.595 Q 17.575 3.43 17.42 3.128 A 1.377 1.377 0 0 1 17.291 2.73 A 1.861 1.861 0 0 1 17.265 2.415 A 1.697 1.697 0 0 1 17.309 2.019 A 1.398 1.398 0 0 1 17.423 1.71 Q 17.58 1.4 17.842 1.22 Q 18.105 1.04 18.42 1.04 A 1.082 1.082 0 0 1 18.634 1.06 A 0.797 0.797 0 0 1 18.868 1.145 Q 19.011 1.225 19.106 1.309 A 0.83 0.83 0 0 1 19.16 1.36 Z M 4.855 1.31 L 4.855 1.1 L 5.265 1.1 L 5.265 3.07 A 0.607 0.607 0 0 0 5.27 3.152 Q 5.287 3.273 5.358 3.318 Q 5.45 3.375 5.56 3.375 L 5.465 3.725 Q 4.997 3.725 4.89 3.354 A 0.679 0.679 0 0 1 4.885 3.335 A 1.065 1.065 0 0 1 4.73 3.506 A 1.425 1.425 0 0 1 4.573 3.628 Q 4.387 3.752 4.106 3.76 A 1.36 1.36 0 0 1 4.07 3.76 Q 3.745 3.76 3.48 3.595 A 1.147 1.147 0 0 1 3.109 3.219 A 1.396 1.396 0 0 1 3.057 3.128 Q 2.9 2.825 2.9 2.415 A 1.657 1.657 0 0 1 2.95 2.002 A 1.398 1.398 0 0 1 3.057 1.715 Q 3.215 1.405 3.493 1.223 A 1.115 1.115 0 0 1 4.052 1.042 A 1.369 1.369 0 0 1 4.13 1.04 A 1.129 1.129 0 0 1 4.37 1.065 A 0.935 0.935 0 0 1 4.537 1.118 A 1.3 1.3 0 0 1 4.752 1.232 A 1.105 1.105 0 0 1 4.855 1.31 Z M 7.385 2.885 L 7.385 0 L 7.835 0 L 7.835 2.84 A 1.032 1.032 0 0 0 7.844 2.984 Q 7.855 3.056 7.876 3.114 A 0.399 0.399 0 0 0 7.947 3.24 A 0.368 0.368 0 0 0 8.177 3.364 A 0.536 0.536 0 0 0 8.26 3.37 Q 8.355 3.37 8.448 3.348 A 1.109 1.109 0 0 0 8.521 3.327 Q 8.556 3.316 8.586 3.304 A 0.597 0.597 0 0 0 8.605 3.295 L 8.715 3.66 Q 8.625 3.7 8.493 3.73 Q 8.36 3.76 8.2 3.76 A 1.043 1.043 0 0 1 7.955 3.732 A 0.877 0.877 0 0 1 7.785 3.673 Q 7.6 3.585 7.493 3.39 A 0.788 0.788 0 0 1 7.419 3.197 Q 7.385 3.059 7.385 2.885 Z M 6.61 3.7 L 6.16 3.7 L 6.16 1.1 L 6.61 1.1 L 6.61 3.7 Z M 13.68 3.7 L 13.23 3.7 L 13.23 1.1 L 13.68 1.1 L 13.68 3.7 Z M 4.815 3.035 L 4.815 1.64 Q 4.68 1.545 4.518 1.488 Q 4.355 1.43 4.175 1.43 A 0.796 0.796 0 0 0 3.926 1.468 A 0.701 0.701 0 0 0 3.753 1.552 A 0.815 0.815 0 0 0 3.502 1.824 A 0.998 0.998 0 0 0 3.465 1.893 A 1.033 1.033 0 0 0 3.377 2.176 A 1.384 1.384 0 0 0 3.36 2.4 Q 3.36 2.68 3.465 2.898 A 0.88 0.88 0 0 0 3.62 3.125 A 0.785 0.785 0 0 0 3.755 3.238 Q 3.94 3.36 4.17 3.36 Q 4.36 3.36 4.53 3.268 A 0.973 0.973 0 0 0 4.766 3.09 A 0.903 0.903 0 0 0 4.815 3.035 Z M 19.16 3.045 L 19.16 1.755 A 0.792 0.792 0 0 0 19.054 1.646 Q 18.985 1.587 18.895 1.533 Q 18.725 1.43 18.52 1.43 A 0.747 0.747 0 0 0 18.272 1.47 A 0.669 0.669 0 0 0 18.1 1.56 A 0.835 0.835 0 0 0 17.842 1.867 A 0.996 0.996 0 0 0 17.823 1.908 Q 17.725 2.125 17.725 2.4 A 1.238 1.238 0 0 0 17.755 2.676 A 1.016 1.016 0 0 0 17.83 2.892 A 0.91 0.91 0 0 0 17.982 3.118 A 0.806 0.806 0 0 0 18.118 3.235 Q 18.3 3.36 18.525 3.36 Q 18.71 3.36 18.877 3.273 Q 19.045 3.185 19.16 3.045 Z M 6.385 0.655 Q 6.255 0.655 6.163 0.56 A 0.332 0.332 0 0 1 6.095 0.461 A 0.3 0.3 0 0 1 6.07 0.34 Q 6.07 0.195 6.155 0.11 A 0.283 0.283 0 0 1 6.302 0.033 A 0.413 0.413 0 0 1 6.385 0.025 A 0.303 0.303 0 0 1 6.605 0.115 A 0.371 0.371 0 0 1 6.607 0.117 Q 6.7 0.21 6.7 0.34 A 0.376 0.376 0 0 1 6.686 0.444 A 0.289 0.289 0 0 1 6.615 0.567 Q 6.53 0.655 6.385 0.655 Z M 13.455 0.655 Q 13.325 0.655 13.233 0.56 A 0.332 0.332 0 0 1 13.165 0.461 A 0.3 0.3 0 0 1 13.14 0.34 Q 13.14 0.195 13.225 0.11 A 0.283 0.283 0 0 1 13.372 0.033 A 0.413 0.413 0 0 1 13.455 0.025 A 0.303 0.303 0 0 1 13.675 0.115 A 0.371 0.371 0 0 1 13.677 0.117 Q 13.77 0.21 13.77 0.34 A 0.376 0.376 0 0 1 13.756 0.444 A 0.289 0.289 0 0 1 13.685 0.567 Q 13.6 0.655 13.455 0.655 Z" vector-effect="non-scaling-stroke"/></g></svg>