<svg width="24.02" height="4.835" viewBox="0 0 24.02 4.835" xmlns="http://www.w3.org/2000/svg"><g id="svgGroup" stroke-linecap="round" fill-rule="evenodd" font-size="9pt" stroke="#ffffff" stroke-width="0" fill="#ffffff" style="stroke:#ffffff;stroke-width:0;fill:#ffffff"><path d="M 2.7 4.735 L 2.8 4.36 A 0.495 0.495 0 0 0 2.858 4.389 Q 2.888 4.401 2.924 4.412 A 0.927 0.927 0 0 0 2.95 4.42 A 0.676 0.676 0 0 0 3.064 4.441 A 0.868 0.868 0 0 0 3.15 4.445 Q 3.36 4.445 3.525 4.31 Q 3.69 4.175 3.84 3.78 L 3.955 3.48 L 3.715 3.48 L 2.7 1.195 L 3.1 1.015 L 4.07 3.18 L 4.825 1.035 L 5.24 1.195 L 4.285 3.805 A 3.586 3.586 0 0 1 4.182 4.059 Q 4.082 4.282 3.97 4.43 A 1.213 1.213 0 0 1 3.826 4.591 Q 3.73 4.679 3.625 4.731 A 0.737 0.737 0 0 1 3.595 4.745 A 0.979 0.979 0 0 1 3.592 4.746 Q 3.439 4.813 3.261 4.829 A 1.303 1.303 0 0 1 3.14 4.835 A 1.271 1.271 0 0 1 3.016 4.829 Q 2.941 4.822 2.878 4.805 A 1.016 1.016 0 0 1 2.806 4.783 Q 2.772 4.772 2.744 4.759 A 0.431 0.431 0 0 1 2.7 4.735 Z M 11.25 3.465 L 11.44 3.09 A 0.928 0.928 0 0 0 11.597 3.196 Q 11.674 3.238 11.766 3.272 A 1.821 1.821 0 0 0 11.767 3.273 A 1.204 1.204 0 0 0 12.148 3.344 A 1.373 1.373 0 0 0 12.19 3.345 A 1.356 1.356 0 0 0 12.344 3.337 Q 12.503 3.319 12.602 3.259 A 0.387 0.387 0 0 0 12.613 3.253 A 0.372 0.372 0 0 0 12.689 3.188 A 0.253 0.253 0 0 0 12.755 3.015 A 0.356 0.356 0 0 0 12.739 2.908 A 0.311 0.311 0 0 0 12.703 2.83 A 0.319 0.319 0 0 0 12.656 2.775 Q 12.605 2.727 12.522 2.679 A 1.117 1.117 0 0 0 12.51 2.673 Q 12.384 2.603 12.155 2.522 A 5.179 5.179 0 0 0 12.105 2.505 Q 11.859 2.421 11.696 2.315 A 0.967 0.967 0 0 1 11.558 2.208 A 0.566 0.566 0 0 1 11.393 1.908 A 0.84 0.84 0 0 1 11.375 1.73 A 0.606 0.606 0 0 1 11.572 1.279 A 0.873 0.873 0 0 1 11.638 1.223 A 0.888 0.888 0 0 1 11.939 1.07 Q 12.067 1.032 12.22 1.02 A 1.876 1.876 0 0 1 12.365 1.015 A 2.04 2.04 0 0 1 12.587 1.027 Q 12.703 1.039 12.804 1.066 A 1.265 1.265 0 0 1 12.81 1.068 A 1.938 1.938 0 0 1 13.017 1.135 A 1.556 1.556 0 0 1 13.16 1.2 L 13.035 1.57 A 1.226 1.226 0 0 0 12.852 1.482 A 1.51 1.51 0 0 0 12.727 1.44 Q 12.555 1.39 12.345 1.39 A 1.032 1.032 0 0 0 12.198 1.4 Q 12.123 1.411 12.063 1.433 A 0.425 0.425 0 0 0 11.95 1.495 A 0.466 0.466 0 0 0 11.882 1.559 Q 11.847 1.6 11.83 1.643 A 0.226 0.226 0 0 0 11.815 1.725 Q 11.815 1.845 11.92 1.93 A 0.494 0.494 0 0 0 11.985 1.973 Q 12.099 2.039 12.32 2.112 A 4.183 4.183 0 0 0 12.33 2.115 Q 12.758 2.258 12.962 2.426 A 0.747 0.747 0 0 1 13.02 2.48 A 0.68 0.68 0 0 1 13.214 2.942 A 0.895 0.895 0 0 1 13.215 2.98 A 0.694 0.694 0 0 1 13.162 3.256 Q 13.093 3.418 12.933 3.533 A 1.003 1.003 0 0 1 12.614 3.681 Q 12.42 3.735 12.175 3.735 Q 11.88 3.735 11.643 3.66 A 1.544 1.544 0 0 1 11.45 3.586 Q 11.351 3.539 11.272 3.482 A 0.912 0.912 0 0 1 11.25 3.465 Z M 1.55 3.675 L 1.075 3.675 L 1.075 0.595 L 0 0.595 L 0 0.175 L 2.625 0.175 L 2.625 0.595 L 1.55 0.595 L 1.55 3.675 Z M 6.235 4.775 L 5.785 4.775 L 5.785 1.74 A 0.551 0.551 0 0 0 5.779 1.653 Q 5.771 1.608 5.756 1.573 A 0.21 0.21 0 0 0 5.702 1.498 Q 5.62 1.425 5.49 1.425 L 5.585 1.075 A 0.876 0.876 0 0 1 5.796 1.099 Q 5.939 1.134 6.031 1.223 A 0.508 0.508 0 0 1 6.16 1.44 Q 6.208 1.368 6.313 1.274 A 1.924 1.924 0 0 1 6.322 1.265 A 0.945 0.945 0 0 1 6.458 1.166 A 1.278 1.278 0 0 1 6.603 1.09 A 0.848 0.848 0 0 1 6.83 1.026 A 1.094 1.094 0 0 1 6.985 1.015 Q 7.285 1.015 7.548 1.173 A 1.116 1.116 0 0 1 7.906 1.521 A 1.373 1.373 0 0 1 7.97 1.628 A 1.284 1.284 0 0 1 8.095 1.98 Q 8.13 2.151 8.13 2.35 A 1.828 1.828 0 0 1 8.095 2.717 A 1.405 1.405 0 0 1 7.97 3.078 A 1.392 1.392 0 0 1 7.773 3.369 A 1.151 1.151 0 0 1 7.552 3.563 Q 7.295 3.735 6.995 3.735 Q 6.765 3.735 6.565 3.643 A 1.518 1.518 0 0 1 6.394 3.551 Q 6.305 3.494 6.235 3.43 L 6.235 4.775 Z M 19.965 4.775 L 19.515 4.775 L 19.515 1.74 A 0.551 0.551 0 0 0 19.509 1.653 Q 19.501 1.608 19.486 1.573 A 0.21 0.21 0 0 0 19.432 1.498 Q 19.35 1.425 19.22 1.425 L 19.315 1.075 A 0.876 0.876 0 0 1 19.526 1.099 Q 19.669 1.134 19.761 1.223 A 0.508 0.508 0 0 1 19.89 1.44 Q 19.938 1.368 20.043 1.274 A 1.924 1.924 0 0 1 20.052 1.265 A 0.945 0.945 0 0 1 20.188 1.166 A 1.278 1.278 0 0 1 20.333 1.09 A 0.848 0.848 0 0 1 20.56 1.026 A 1.094 1.094 0 0 1 20.715 1.015 Q 21.015 1.015 21.278 1.173 A 1.116 1.116 0 0 1 21.636 1.521 A 1.373 1.373 0 0 1 21.7 1.628 A 1.284 1.284 0 0 1 21.825 1.98 Q 21.86 2.151 21.86 2.35 A 1.828 1.828 0 0 1 21.825 2.717 A 1.405 1.405 0 0 1 21.7 3.078 A 1.392 1.392 0 0 1 21.503 3.369 A 1.151 1.151 0 0 1 21.282 3.563 Q 21.025 3.735 20.725 3.735 Q 20.495 3.735 20.295 3.643 A 1.518 1.518 0 0 1 20.124 3.551 Q 20.035 3.494 19.965 3.43 L 19.965 4.775 Z M 10.86 2.56 L 9.04 2.56 A 1.204 1.204 0 0 0 9.097 2.811 Q 9.156 2.981 9.267 3.101 A 0.749 0.749 0 0 0 9.295 3.13 A 0.707 0.707 0 0 0 9.676 3.321 A 1.001 1.001 0 0 0 9.85 3.335 Q 10.075 3.335 10.255 3.288 Q 10.435 3.24 10.6 3.165 L 10.705 3.55 A 2.038 2.038 0 0 1 10.488 3.631 A 2.593 2.593 0 0 1 10.3 3.683 A 1.946 1.946 0 0 1 10.045 3.723 A 2.601 2.601 0 0 1 9.795 3.735 A 1.416 1.416 0 0 1 9.408 3.685 A 1.055 1.055 0 0 1 8.907 3.378 A 1.176 1.176 0 0 1 8.647 2.901 Q 8.597 2.726 8.584 2.517 A 2.356 2.356 0 0 1 8.58 2.375 A 1.768 1.768 0 0 1 8.622 1.984 A 1.442 1.442 0 0 1 8.728 1.678 A 1.232 1.232 0 0 1 8.978 1.323 A 1.144 1.144 0 0 1 9.14 1.193 A 1.052 1.052 0 0 1 9.653 1.019 A 1.31 1.31 0 0 1 9.755 1.015 A 1.428 1.428 0 0 1 10.029 1.04 Q 10.196 1.072 10.329 1.148 A 0.861 0.861 0 0 1 10.377 1.178 Q 10.625 1.34 10.75 1.615 A 1.409 1.409 0 0 1 10.871 2.108 A 1.672 1.672 0 0 1 10.875 2.22 A 3.76 3.76 0 0 1 10.86 2.555 A 3.529 3.529 0 0 1 10.86 2.56 Z M 22.585 2.78 L 22.585 1.56 L 22.135 1.56 L 22.135 1.17 L 22.595 1.17 L 22.69 0.35 L 23.035 0.35 L 23.035 1.17 L 23.755 1.17 L 23.755 1.56 L 23.035 1.56 L 23.035 2.815 A 1.078 1.078 0 0 0 23.043 2.955 Q 23.063 3.107 23.131 3.192 A 0.278 0.278 0 0 0 23.158 3.22 Q 23.28 3.335 23.45 3.335 Q 23.575 3.335 23.688 3.295 A 1.287 1.287 0 0 0 23.846 3.227 A 1.138 1.138 0 0 0 23.895 3.2 L 24.02 3.56 A 0.927 0.927 0 0 1 23.939 3.603 Q 23.859 3.641 23.75 3.678 Q 23.58 3.735 23.395 3.735 A 0.916 0.916 0 0 1 23.136 3.7 A 0.697 0.697 0 0 1 22.803 3.488 A 0.806 0.806 0 0 1 22.641 3.192 Q 22.585 3.014 22.585 2.78 Z M 15.61 1.17 L 15.475 1.55 A 1.521 1.521 0 0 0 15.33 1.486 A 1.171 1.171 0 0 0 15.208 1.448 A 1.027 1.027 0 0 0 15.055 1.421 A 1.318 1.318 0 0 0 14.925 1.415 A 0.794 0.794 0 0 0 14.562 1.497 A 0.807 0.807 0 0 0 14.337 1.668 Q 14.112 1.907 14.101 2.32 A 1.614 1.614 0 0 0 14.1 2.365 A 1.26 1.26 0 0 0 14.135 2.668 A 1.073 1.073 0 0 0 14.2 2.855 A 0.928 0.928 0 0 0 14.346 3.084 A 0.814 0.814 0 0 0 14.477 3.205 A 0.673 0.673 0 0 0 14.836 3.333 A 0.845 0.845 0 0 0 14.895 3.335 A 1.421 1.421 0 0 0 15.04 3.328 Q 15.112 3.321 15.173 3.306 A 0.754 0.754 0 0 0 15.22 3.293 Q 15.355 3.25 15.51 3.17 L 15.65 3.55 A 1.427 1.427 0 0 1 15.419 3.65 A 1.714 1.714 0 0 1 15.302 3.685 Q 15.11 3.735 14.865 3.735 Q 14.495 3.735 14.218 3.563 Q 13.94 3.39 13.79 3.083 A 1.468 1.468 0 0 1 13.658 2.642 A 1.901 1.901 0 0 1 13.64 2.375 A 1.602 1.602 0 0 1 13.706 1.911 A 1.44 1.44 0 0 1 13.792 1.69 Q 13.945 1.38 14.23 1.198 A 1.153 1.153 0 0 1 14.713 1.026 A 1.48 1.48 0 0 1 14.9 1.015 Q 15.101 1.015 15.258 1.048 A 1.198 1.198 0 0 1 15.287 1.055 Q 15.455 1.095 15.61 1.17 Z M 16.625 3.675 L 16.175 3.675 L 16.175 1.075 L 16.61 1.075 L 16.61 1.64 Q 16.675 1.475 16.785 1.333 Q 16.895 1.19 17.06 1.103 A 0.741 0.741 0 0 1 17.294 1.026 A 0.973 0.973 0 0 1 17.445 1.015 Q 17.52 1.015 17.595 1.023 A 0.949 0.949 0 0 1 17.648 1.029 Q 17.689 1.036 17.72 1.045 L 17.585 1.51 A 0.488 0.488 0 0 0 17.478 1.479 Q 17.428 1.471 17.372 1.47 A 0.831 0.831 0 0 0 17.36 1.47 A 0.648 0.648 0 0 0 17.029 1.562 A 0.78 0.78 0 0 0 17.008 1.575 A 0.67 0.67 0 0 0 16.834 1.735 Q 16.779 1.806 16.734 1.897 A 1.082 1.082 0 0 0 16.733 1.9 A 0.966 0.966 0 0 0 16.659 2.116 Q 16.625 2.269 16.625 2.46 L 16.625 3.675 Z M 18.62 3.675 L 18.17 3.675 L 18.17 1.075 L 18.62 1.075 L 18.62 3.675 Z M 6.235 1.745 L 6.235 3.025 Q 6.365 3.16 6.535 3.248 Q 6.705 3.335 6.905 3.335 Q 7.24 3.335 7.451 3.076 A 0.869 0.869 0 0 0 7.457 3.068 A 0.94 0.94 0 0 0 7.632 2.702 Q 7.665 2.568 7.669 2.41 A 1.728 1.728 0 0 0 7.67 2.365 A 1.402 1.402 0 0 0 7.65 2.123 Q 7.625 1.982 7.57 1.865 A 0.868 0.868 0 0 0 7.563 1.85 Q 7.455 1.635 7.278 1.52 Q 7.1 1.405 6.885 1.405 A 0.737 0.737 0 0 0 6.604 1.458 A 0.703 0.703 0 0 0 6.497 1.513 Q 6.351 1.604 6.264 1.708 A 0.647 0.647 0 0 0 6.235 1.745 Z M 19.965 1.745 L 19.965 3.025 Q 20.095 3.16 20.265 3.248 Q 20.435 3.335 20.635 3.335 Q 20.97 3.335 21.181 3.076 A 0.869 0.869 0 0 0 21.187 3.068 A 0.94 0.94 0 0 0 21.362 2.702 Q 21.395 2.568 21.399 2.41 A 1.728 1.728 0 0 0 21.4 2.365 A 1.402 1.402 0 0 0 21.38 2.123 Q 21.355 1.982 21.3 1.865 A 0.868 0.868 0 0 0 21.293 1.85 Q 21.185 1.635 21.008 1.52 Q 20.83 1.405 20.615 1.405 A 0.737 0.737 0 0 0 20.334 1.458 A 0.703 0.703 0 0 0 20.227 1.513 Q 20.081 1.604 19.994 1.708 A 0.647 0.647 0 0 0 19.965 1.745 Z M 9.035 2.195 L 10.46 2.195 A 1.218 1.218 0 0 0 10.44 1.966 Q 10.398 1.748 10.27 1.61 A 0.624 0.624 0 0 0 9.922 1.421 A 0.92 0.92 0 0 0 9.745 1.405 A 0.679 0.679 0 0 0 9.489 1.452 A 0.626 0.626 0 0 0 9.265 1.608 A 0.758 0.758 0 0 0 9.118 1.842 Q 9.056 1.994 9.035 2.195 Z M 18.395 0.63 Q 18.265 0.63 18.173 0.535 A 0.332 0.332 0 0 1 18.105 0.436 A 0.3 0.3 0 0 1 18.08 0.315 Q 18.08 0.17 18.165 0.085 A 0.283 0.283 0 0 1 18.312 0.008 A 0.413 0.413 0 0 1 18.395 0 A 0.303 0.303 0 0 1 18.615 0.09 A 0.371 0.371 0 0 1 18.617 0.093 Q 18.71 0.185 18.71 0.315 A 0.376 0.376 0 0 1 18.696 0.419 A 0.289 0.289 0 0 1 18.625 0.543 Q 18.54 0.63 18.395 0.63 Z" vector-effect="non-scaling-stroke"/></g></svg>