<svg width="8.905" height="3.735" viewBox="0 0 8.905 3.735" xmlns="http://www.w3.org/2000/svg"><g id="svgGroup" stroke-linecap="round" fill-rule="evenodd" font-size="9pt" stroke="#ffffff" stroke-width="0" fill="#ffffff" style="stroke:#ffffff;stroke-width:0;fill:#ffffff"><path d="M 1.82 3.675 L 1.285 3.675 L 0 0.3 L 0.465 0.12 L 1.565 3.155 L 2.67 0.135 L 3.1 0.3 L 1.82 3.675 Z M 8.89 2.56 L 7.07 2.56 A 1.204 1.204 0 0 0 7.127 2.811 Q 7.186 2.981 7.297 3.101 A 0.749 0.749 0 0 0 7.325 3.13 A 0.707 0.707 0 0 0 7.706 3.321 A 1.001 1.001 0 0 0 7.88 3.335 Q 8.105 3.335 8.285 3.288 Q 8.465 3.24 8.63 3.165 L 8.735 3.55 A 2.038 2.038 0 0 1 8.518 3.631 A 2.593 2.593 0 0 1 8.33 3.683 A 1.946 1.946 0 0 1 8.075 3.723 A 2.601 2.601 0 0 1 7.825 3.735 A 1.416 1.416 0 0 1 7.438 3.685 A 1.055 1.055 0 0 1 6.937 3.378 A 1.176 1.176 0 0 1 6.677 2.901 Q 6.627 2.726 6.614 2.517 A 2.356 2.356 0 0 1 6.61 2.375 A 1.768 1.768 0 0 1 6.652 1.984 A 1.442 1.442 0 0 1 6.758 1.678 A 1.232 1.232 0 0 1 7.008 1.323 A 1.144 1.144 0 0 1 7.17 1.193 A 1.052 1.052 0 0 1 7.683 1.019 A 1.31 1.31 0 0 1 7.785 1.015 A 1.428 1.428 0 0 1 8.059 1.04 Q 8.226 1.072 8.359 1.148 A 0.861 0.861 0 0 1 8.407 1.178 Q 8.655 1.34 8.78 1.615 A 1.409 1.409 0 0 1 8.901 2.108 A 1.672 1.672 0 0 1 8.905 2.22 A 3.76 3.76 0 0 1 8.89 2.555 A 3.529 3.529 0 0 1 8.89 2.56 Z M 4.9 2.78 L 4.9 1.56 L 4.45 1.56 L 4.45 1.17 L 4.91 1.17 L 5.005 0.35 L 5.35 0.35 L 5.35 1.17 L 6.07 1.17 L 6.07 1.56 L 5.35 1.56 L 5.35 2.815 A 1.078 1.078 0 0 0 5.358 2.955 Q 5.378 3.107 5.446 3.192 A 0.278 0.278 0 0 0 5.473 3.22 Q 5.595 3.335 5.765 3.335 Q 5.89 3.335 6.003 3.295 A 1.287 1.287 0 0 0 6.161 3.227 A 1.138 1.138 0 0 0 6.21 3.2 L 6.335 3.56 A 0.927 0.927 0 0 1 6.254 3.603 Q 6.174 3.641 6.065 3.678 Q 5.895 3.735 5.71 3.735 A 0.916 0.916 0 0 1 5.451 3.7 A 0.697 0.697 0 0 1 5.118 3.488 A 0.806 0.806 0 0 1 4.956 3.192 Q 4.9 3.014 4.9 2.78 Z M 4 3.675 L 3.55 3.675 L 3.55 1.075 L 4 1.075 L 4 3.675 Z M 7.065 2.195 L 8.49 2.195 A 1.218 1.218 0 0 0 8.47 1.966 Q 8.428 1.748 8.3 1.61 A 0.624 0.624 0 0 0 7.952 1.421 A 0.92 0.92 0 0 0 7.775 1.405 A 0.679 0.679 0 0 0 7.519 1.452 A 0.626 0.626 0 0 0 7.295 1.608 A 0.758 0.758 0 0 0 7.148 1.842 Q 7.086 1.994 7.065 2.195 Z M 3.775 0.63 Q 3.645 0.63 3.553 0.535 A 0.332 0.332 0 0 1 3.485 0.436 A 0.3 0.3 0 0 1 3.46 0.315 Q 3.46 0.17 3.545 0.085 A 0.283 0.283 0 0 1 3.692 0.008 A 0.413 0.413 0 0 1 3.775 0 A 0.303 0.303 0 0 1 3.995 0.09 A 0.371 0.371 0 0 1 3.997 0.093 Q 4.09 0.185 4.09 0.315 A 0.376 0.376 0 0 1 4.076 0.419 A 0.289 0.289 0 0 1 4.005 0.543 Q 3.92 0.63 3.775 0.63 Z" vector-effect="non-scaling-stroke"/></g></svg>